<svg xmlns="http://www.w3.org/2000/svg" viewBox="0 0 1200 630" style="background: linear-gradient(135deg, #1a2942 0%, #2d4a7c 50%, #5577aa 100%);">
  <!-- Quantum neural pathways -->
  <defs>
    <filter id="quantum-glow">
      <feGaussianBlur stdDeviation="4" result="coloredBlur"/>
      <feMerge>
        <feMergeNode in="coloredBlur"/>
        <feMergeNode in="SourceGraphic"/>
      </feMerge>
    </filter>
    <radialGradient id="quantumGrad" cx="50%" cy="50%" r="50%">
      <stop offset="0%" style="stop-color:#8BB4FF;stop-opacity:1" />
      <stop offset="100%" style="stop-color:#5577aa;stop-opacity:0.8" />
    </radialGradient>
  </defs>
  
  <!-- Background quantum patterns -->
  <g opacity="0.15">
    <path d="M 100 315 Q 300 200 500 315 T 900 315" fill="none" stroke="#8BB4FF" stroke-width="2"/>
    <path d="M 200 250 Q 400 150 600 250 T 1000 250" fill="none" stroke="#8BB4FF" stroke-width="2"/>
    <path d="M 150 400 Q 350 300 550 400 T 950 400" fill="none" stroke="#8BB4FF" stroke-width="2"/>
  </g>
  
  <!-- Hyperdimensional vector visualization -->
  <g filter="url(#quantum-glow)">
    <!-- Central quantum core -->
    <circle cx="600" cy="315" r="40" fill="url(#quantumGrad)" opacity="0.8"/>
    <circle cx="600" cy="315" r="60" fill="none" stroke="#8BB4FF" stroke-width="2" opacity="0.5"/>
    <circle cx="600" cy="315" r="80" fill="none" stroke="#8BB4FF" stroke-width="1" opacity="0.3"/>
    
    <!-- Vector pathways -->
    <g opacity="0.8">
      <!-- Top pathways -->
      <path d="M 600 315 L 400 150" stroke="#8BB4FF" stroke-width="3"/>
      <circle cx="400" cy="150" r="10" fill="#8BB4FF"/>
      
      <path d="M 600 315 L 600 120" stroke="#8BB4FF" stroke-width="3"/>
      <circle cx="600" cy="120" r="10" fill="#8BB4FF"/>
      
      <path d="M 600 315 L 800 150" stroke="#8BB4FF" stroke-width="3"/>
      <circle cx="800" cy="150" r="10" fill="#8BB4FF"/>
      
      <!-- Side pathways -->
      <path d="M 600 315 L 300 315" stroke="#8BB4FF" stroke-width="3"/>
      <circle cx="300" cy="315" r="10" fill="#8BB4FF"/>
      
      <path d="M 600 315 L 900 315" stroke="#8BB4FF" stroke-width="3"/>
      <circle cx="900" cy="315" r="10" fill="#8BB4FF"/>
      
      <!-- Bottom pathways -->
      <path d="M 600 315 L 400 480" stroke="#8BB4FF" stroke-width="3"/>
      <circle cx="400" cy="480" r="10" fill="#8BB4FF"/>
      
      <path d="M 600 315 L 600 510" stroke="#8BB4FF" stroke-width="3"/>
      <circle cx="600" cy="510" r="10" fill="#8BB4FF"/>
      
      <path d="M 600 315 L 800 480" stroke="#8BB4FF" stroke-width="3"/>
      <circle cx="800" cy="480" r="10" fill="#8BB4FF"/>
    </g>
    
    <!-- Neural connections -->
    <g opacity="0.4">
      <line x1="400" y1="150" x2="600" y2="120" stroke="#B8D4FF" stroke-width="1"/>
      <line x1="600" y1="120" x2="800" y2="150" stroke="#B8D4FF" stroke-width="1"/>
      <line x1="300" y1="315" x2="400" y2="150" stroke="#B8D4FF" stroke-width="1"/>
      <line x1="900" y1="315" x2="800" y2="150" stroke="#B8D4FF" stroke-width="1"/>
      <line x1="400" y1="480" x2="600" y2="510" stroke="#B8D4FF" stroke-width="1"/>
      <line x1="600" y1="510" x2="800" y2="480" stroke="#B8D4FF" stroke-width="1"/>
    </g>
  </g>
  
  <!-- Text overlay -->
  <text x="600" y="80" font-family="Inter, system-ui, sans-serif" font-size="48" font-weight="700" fill="#FFFFFF" text-anchor="middle">
    GENESIS
  </text>
  <text x="600" y="590" font-family="Inter, system-ui, sans-serif" font-size="20" font-weight="400" fill="#B8D4FF" text-anchor="middle">
    Cognitive Computing Platform · Quantum-Enhanced Neural-Symbolic AI
  </text>
</svg>